HIERARCHY
ROOT Hips
{
	OFFSET 0.000000 0.000000 0.000000
	CHANNELS 6 Xposition Yposition Zposition Zrotation Yrotation Xrotation 
	JOINT LHipJoint
	{
		OFFSET 0.000000 0.000000 0.000000
		CHANNELS 3 Zrotation Yrotation Xrotation
		JOINT LeftUpLeg
		{
			OFFSET 1.363060 -1.794630 0.839290
			CHANNELS 3 Zrotation Yrotation Xrotation
			JOINT LeftLeg
			{
				OFFSET 2.448110 -6.726130 0.000000
				CHANNELS 3 Zrotation Yrotation Xrotation
				JOINT LeftFoot
				{
					OFFSET 2.562200 -7.039590 0.000000
					CHANNELS 3 Zrotation Yrotation Xrotation
					JOINT LeftToeBase
					{
						OFFSET 0.157640 -0.433110 2.322550
						CHANNELS 3 Zrotation Yrotation Xrotation
						End Site
						{
							OFFSET 0.000000 0.000000 0.000000
						}
					}
				}
			}
		}
	}
	JOINT RHipJoint
	{
		OFFSET 0.000000 0.000000 0.000000
		CHANNELS 3 Zrotation Yrotation Xrotation
		JOINT RightUpLeg
		{
			OFFSET -1.305520 -1.794630 0.839290
			CHANNELS 3 Zrotation Yrotation Xrotation
			JOINT RightLeg
			{
				OFFSET -2.542530 -6.985550 0.000000
				CHANNELS 3 Zrotation Yrotation Xrotation
				JOINT RightFoot
				{
					OFFSET -2.568260 -7.056230 0.000000
					CHANNELS 3 Zrotation Yrotation Xrotation
					JOINT RightToeBase
					{
						OFFSET -0.164730 -0.452590 2.363150
						CHANNELS 3 Zrotation Yrotation Xrotation
						End Site
						{
							OFFSET 0.000000 0.000000 0.000000
						}
					}
				}
			}
		}
	}
	JOINT LowerBack
	{
		OFFSET 0.000000 0.000000 0.000000
		CHANNELS 3 Zrotation Yrotation Xrotation
		JOINT Spine
		{
			OFFSET 0.028270 2.035590 -0.193380
			CHANNELS 3 Zrotation Yrotation Xrotation
			JOINT Spine1
			{
				OFFSET 0.056720 2.048850 -0.042750
				CHANNELS 3 Zrotation Yrotation Xrotation
				JOINT Neck
				{
					OFFSET 0.000000 0.000000 0.000000
					CHANNELS 3 Zrotation Yrotation Xrotation
					JOINT Neck1
					{
						OFFSET -0.054170 1.746240 0.172020
						CHANNELS 3 Zrotation Yrotation Xrotation
						JOINT Head
						{
							OFFSET 0.104070 1.761360 -0.123970
							CHANNELS 3 Zrotation Yrotation Xrotation
							End Site
							{
								OFFSET 0.000000 0.000000 0.000000
							}
						}
					}
				}
				JOINT LeftShoulder
				{
					OFFSET 0.000000 0.000000 0.000000
					CHANNELS 3 Zrotation Yrotation Xrotation
					JOINT LeftArm
					{
						OFFSET 3.362410 1.200890 -0.311210
						CHANNELS 3 Zrotation Yrotation Xrotation
						JOINT LeftForeArm
						{
							OFFSET 4.983000 -0.000000 -0.000000
							CHANNELS 3 Zrotation Yrotation Xrotation
							JOINT LeftHand
							{
								OFFSET 3.483560 -0.000000 -0.000000
								CHANNELS 3 Zrotation Yrotation Xrotation
								JOINT LeftFingerBase
								{
									OFFSET 0.000000 0.000000 0.000000
									CHANNELS 3 Zrotation Yrotation Xrotation
									JOINT LeftHandIndex1
									{
										OFFSET 0.715260 -0.000000 -0.000000
										CHANNELS 3 Zrotation Yrotation Xrotation
										End Site
										{
											OFFSET 0.000000 0.000000 0.000000
										}
									}
								}
								JOINT LThumb
								{
									OFFSET 0.000000 0.000000 0.000000
									CHANNELS 3 Zrotation Yrotation Xrotation
									End Site
									{
										OFFSET 0.000000 0.000000 0.000000
									}
								}
							}
						}
					}
				}
				JOINT RightShoulder
				{
					OFFSET 0.000000 0.000000 0.000000
					CHANNELS 3 Zrotation Yrotation Xrotation
					JOINT RightArm
					{
						OFFSET -3.136600 1.374050 -0.404650
						CHANNELS 3 Zrotation Yrotation Xrotation
						JOINT RightForeArm
						{
							OFFSET -5.241900 -0.000000 -0.000000
							CHANNELS 3 Zrotation Yrotation Xrotation
							JOINT RightHand
							{
								OFFSET -3.444170 -0.000000 -0.000000
								CHANNELS 3 Zrotation Yrotation Xrotation
								JOINT RightFingerBase
								{
									OFFSET 0.000000 0.000000 0.000000
									CHANNELS 3 Zrotation Yrotation Xrotation
									JOINT RightHandIndex1
									{
										OFFSET -0.622530 -0.000000 -0.000000
										CHANNELS 3 Zrotation Yrotation Xrotation
										End Site
										{
											OFFSET 0.000000 0.000000 0.000000
										}
									}
								}
								JOINT RThumb
								{
									OFFSET 0.000000 0.000000 0.000000
									CHANNELS 3 Zrotation Yrotation Xrotation
									End Site
									{
										OFFSET 0.000000 0.000000 0.000000
									}
								}
							}
						}
					}
				}
			}
		}
	}
}
MOTION
Frames: 8
Frame Time: 0.008333
3.474336 17.240048 0.814315 162.386529 -87.688526 -150.691521 -10.578546 1.350147 0.576285 -5.503830 16.288567 -14.991714 -2.734007 -1.636416 -3.511733 0.424557 5.494780 4.821378 1.448400 0.000000 -35.251900 10.437063 -2.201501 2.982091 1.617916 -3.619113 -12.690086 2.030904 1.070290 -0.788980 -0.220368 -4.643907 -0.677892 -1.746601 -0.000000 -42.879899 0.322646 3.826560 -4.489148 0.471945 3.923120 -4.675524 1.366066 4.024460 -5.549300 -5.866007 6.099863 1.973520 -0.728488 -0.224331 2.745384 0.000000 0.000000 0.000000 0.355291 -2.940517 -4.026580 -91.502150 -19.839756 30.710264 179.383062 -54.822645 179.893742 5.573131 -9.784968 -0.534812 -0.010226 1.165081 -0.000000 0.000000 0.000000 0.000000 0.000000 0.000000 0.000000 -16.784388 12.728347 1.716342 -9.936416 73.690643 -106.014509 -3.862975 5.225101 -0.097022 -14.130708 12.489179 -1.653475 0.207214 -0.592444 -0.000000 0.000000 0.000000 0.000000 0.000000 0.000000 0.000000 
3.470676 17.238696 0.816019 162.082357 -87.865596 -150.299530 -10.575029 1.327309 0.503895 -5.461840 16.241999 -14.990992 -2.733035 -1.628883 -3.554579 0.415849 5.394548 4.826904 1.426200 -0.000000 -35.324300 10.443007 -2.161863 2.901553 1.649879 -3.597795 -12.619623 2.022639 1.071079 -0.802413 -0.236096 -4.806858 -0.726369 -1.780400 -0.000000 -42.827800 0.396706 3.873856 -4.271370 0.391877 3.959195 -4.882462 0.952267 4.108292 -6.580546 -5.511346 5.980531 2.432236 -0.772633 -0.237456 2.885938 0.000000 0.000000 0.000000 0.631275 -3.041987 -3.672257 -91.464023 -19.418298 30.709228 179.560613 -54.868944 179.894685 5.597417 -9.758493 -0.537655 -0.024026 1.175687 -0.000000 0.000000 0.000000 0.000000 0.000000 0.000000 0.000000 -16.679564 12.756627 -0.226254 4.520050 74.085543 -89.376667 -4.419292 7.626615 -0.097283 -13.333773 12.280417 -1.533675 0.181032 -0.598839 -0.000000 0.000000 0.000000 0.000000 0.000000 0.000000 0.000000 
3.467262 17.237196 0.818184 161.908928 -87.968606 -149.844845 -10.598730 1.271831 0.311042 -5.433339 16.191205 -15.052257 -2.732007 -1.608412 -3.619955 0.413722 5.303920 4.824790 1.401900 0.000000 -35.405500 10.426317 -2.053210 2.694198 1.674390 -3.529097 -12.600193 2.018638 1.081735 -0.825736 -0.250435 -4.973177 -0.767812 -1.815799 -0.000000 -42.776901 0.580013 3.837520 -3.702873 0.281729 3.893906 -5.188505 0.302583 4.104148 -8.191738 -5.247169 5.907086 2.616108 -0.892597 -0.250013 2.952427 0.000000 0.000000 0.000000 1.083071 -2.470770 -3.317158 -91.426155 -18.735307 30.806512 179.813077 -54.660398 179.897375 5.616829 -9.733265 -0.540446 -0.044642 1.175911 -0.000000 0.000000 0.000000 0.000000 0.000000 0.000000 0.000000 -16.588079 11.983584 -2.634233 24.177567 74.830560 -66.737917 -6.341689 10.680405 -0.107149 -12.651680 11.738695 -1.391683 0.133243 -0.620122 -0.000000 0.000000 0.000000 0.000000 0.000000 0.000000 0.000000 
3.464132 17.235610 0.820692 161.811821 -87.847488 -149.396576 -10.678246 1.230183 0.100302 -5.430964 16.151755 -15.130735 -2.731345 -1.577019 -3.713800 0.418099 5.228372 4.814998 1.376500 0.000000 -35.492601 10.355441 -1.906828 2.425612 1.666780 -3.421165 -12.601758 2.020615 1.118197 -0.856813 -0.259058 -5.122051 -0.797634 -1.851300 -0.000001 -42.729400 0.801786 3.469534 -3.030233 0.252313 3.493491 -5.379926 -0.172904 3.727008 -9.306328 -5.236863 5.899240 2.070957 -1.146790 -0.253335 2.797043 0.000000 0.000000 0.000000 1.563484 -0.922852 -3.279947 -91.325123 -18.049225 30.729298 179.900034 -53.981582 179.900089 5.647218 -9.723280 -0.542744 -0.053904 1.151584 -0.000000 0.000000 0.000000 0.000000 0.000000 0.000000 0.000000 -15.873893 9.985067 -3.437024 42.062510 77.784314 -46.391611 -8.947061 13.276188 -0.126656 -12.155560 10.897833 -1.243894 0.064606 -0.664225 0.000000 0.000000 0.000000 0.000000 0.000000 0.000000 0.000000 
3.461323 17.234004 0.823421 161.619072 -87.683724 -149.124943 -10.759100 1.248425 0.053310 -5.417616 16.148689 -15.101511 -2.728116 -1.553113 -3.790157 0.416987 5.141353 4.808592 1.351100 -0.000001 -35.582200 10.279510 -1.839434 2.308147 1.649045 -3.346027 -12.505915 2.018144 1.154833 -0.885662 -0.268942 -5.267566 -0.823490 -1.885901 -0.000000 -42.686700 0.876652 2.999439 -2.818186 0.304734 3.011512 -5.329538 -0.260987 3.227184 -9.213996 -5.119680 5.919637 1.502955 -1.404709 -0.254531 2.617821 0.000000 0.000000 0.000000 1.888651 0.248336 -3.443221 -91.194942 -17.732574 30.394417 179.790377 -53.413197 179.900390 5.691847 -9.703172 -0.544281 -0.047851 1.127935 -0.000000 0.000000 0.000000 0.000000 0.000000 0.000000 0.000000 -14.501885 8.462219 -2.579478 53.552365 80.959695 -32.852054 -10.085495 15.255424 -0.140172 -11.798551 9.926163 -1.104808 0.015473 -0.702266 0.000000 0.000000 0.000000 0.000000 0.000000 0.000000 0.000000 
3.458717 17.232441 0.826291 161.364385 -87.637775 -148.984564 -10.808492 1.292192 0.102233 -5.378829 16.163206 -14.998794 -2.722262 -1.539384 -3.841257 0.409645 5.042508 4.807574 1.326800 -0.000000 -35.671300 10.233237 -1.837673 2.308352 1.646793 -3.310946 -12.336798 2.011080 1.176997 -0.909938 -0.282714 -5.417265 -0.849875 -1.918600 0.000000 -42.650000 0.840821 2.684242 -2.912909 0.328506 2.694915 -5.243097 -0.310491 2.887456 -8.807526 -4.748804 5.931216 1.384882 -1.592371 -0.260807 2.567753 0.000000 0.000000 0.000000 2.161587 0.618682 -3.522157 -91.086288 -17.626614 30.040411 179.680690 -53.228037 179.899327 5.736047 -9.657303 -0.544970 -0.041320 1.120543 -0.000000 0.000000 0.000000 0.000000 0.000000 0.000000 0.000000 -13.137212 7.932739 -1.854082 59.296511 81.937102 -24.402705 -10.041460 17.453723 -0.146806 -11.532368 8.971309 -0.982349 -0.012899 -0.727576 -0.000000 0.000000 0.000000 0.000000 0.000000 0.000000 0.000000 
3.456249 17.231006 0.829192 161.114951 -87.663380 -148.903572 -10.839841 1.338010 0.172614 -5.326357 16.178229 -14.874564 -2.715337 -1.530727 -3.880823 0.400331 4.944609 4.808475 1.304100 -0.000000 -35.756900 10.204640 -1.858033 2.343286 1.656848 -3.298265 -12.149040 2.003295 1.190882 -0.930235 -0.297486 -5.561693 -0.875083 -1.948500 0.000000 -42.619600 0.767728 2.475670 -3.086004 0.319014 2.487748 -5.198641 -0.418606 2.661795 -8.497903 -4.238928 5.913581 1.559272 -1.740162 -0.270812 2.605508 0.000000 0.000000 0.000000 2.437433 0.613249 -3.497056 -90.982188 -17.578713 29.730864 179.608614 -53.260333 179.897904 5.776914 -9.594047 -0.545219 -0.037190 1.122361 -0.000000 0.000000 0.000000 0.000000 0.000000 0.000000 0.000000 -11.889361 7.848468 -1.607828 61.785107 81.290595 -18.858716 -9.565912 20.135159 -0.150824 -11.365944 8.120468 -0.882969 -0.032066 -0.745828 -0.000000 0.000000 0.000000 0.000000 0.000000 0.000000 0.000000 
3.453883 17.229715 0.832081 160.879793 -87.716763 -148.850108 -10.863337 1.382504 0.247595 -5.268014 16.187866 -14.745320 -2.707664 -1.524306 -3.914635 0.391072 4.854033 4.809390 1.283700 -0.000001 -35.837701 10.183691 -1.885189 2.386003 1.674241 -3.303949 -11.962880 1.996558 1.200847 -0.944201 -0.311026 -5.692935 -0.899119 -1.975300 -0.000000 -42.596500 0.680471 2.312429 -3.275641 0.294993 2.327126 -5.179736 -0.556732 2.485953 -8.265115 -3.672699 5.851756 1.860979 -1.871889 -0.282427 2.681994 0.000000 0.000000 0.000000 2.711031 0.478621 -3.419097 -90.874343 -17.566760 29.459493 179.559238 -53.391763 179.896427 5.814631 -9.520879 -0.544855 -0.034413 1.127802 -0.000000 0.000000 0.000000 0.000000 0.000000 0.000000 0.000000 -10.696628 7.892736 -1.631294 62.755294 79.852630 -14.917788 -8.922329 23.282280 -0.153991 -11.285281 7.417575 -0.807077 -0.047182 -0.759937 -0.000000 0.000000 0.000000 0.000000 0.000000 0.000000 0.000000 
